# xmcd
#
# Track frame offsets: 
#        150
#        13595
#        23238
#        37384
#        47926
#        59811
#        70138
#        82442
#        94403
#        104785
#        116978
#        129207
#        140814
#        153700
#        165607
#        178837
#        190316
#        202993
#        214591
#        227501
#        238706
#        250615
#        262361
#        276216
#        289931
#
# Disc length: 4030 seconds
#
# Revision: 0
# Processed by: cddbd v1.5.2PL0 Copyright (c) Steve Scherf et al.
# Submitted via: ExactAudioCopy v1.0b3
#
DISCID=960fbc19
DTITLE=Lightnin' Hopkins - The Essence of Lightnin' Hopkins
DYEAR=1900
DGENRE=Blues
TTITLE0=Katie Mae Blues
TTITLE1=Feel So Bad
TTITLE2=That Mean Old Twister
TTITLE3=Big Mama Jump
TTITLE4=Can't Get That Woman Off My Mind
TTITLE5=Miss Me Blues
TTITLE6=Sugar Mama
TTITLE7=Come Back Baby
TTITLE8=Lightnin's Boogie
TTITLE9=Howling Wolf Blues
TTITLE10=Baby Child
TTITLE11=See See Rider
TTITLE12=Whiskey Headed Woman
TTITLE13=Shotgun
TTITLE14=Moonrise Blues (The Moon Is Rising)
TTITLE15=Mercy
TTITLE16=Walking Blues
TTITLE17=Lightning Blues
TTITLE18=Baby Please Don't Go
TTITLE19=Mad With You
TTITLE20=Airplane Blues
TTITLE21=T' Model Blues
TTITLE22=Traveller's Blues
TTITLE23=Trying To Find A Friend
TTITLE24=Fast Life
EXTD=
EXTT0=
EXTT1=
EXTT2=
EXTT3=
EXTT4=
EXTT5=
EXTT6=
EXTT7=
EXTT8=
EXTT9=
EXTT10=
EXTT11=
EXTT12=
EXTT13=
EXTT14=
EXTT15=
EXTT16=
EXTT17=
EXTT18=
EXTT19=
EXTT20=
EXTT21=
EXTT22=
EXTT23=
EXTT24=
PLAYORDER=
